<?xml version="1.0" encoding="utf-8"?>
<!-- Generator: Adobe Illustrator 16.0.3, SVG Export Plug-In . SVG Version: 6.00 Build 0)  -->
<!DOCTYPE svg PUBLIC "-//W3C//DTD SVG 1.1//EN" "http://www.w3.org/Graphics/SVG/1.1/DTD/svg11.dtd">
<svg version="1.1" id="Layer_1" xmlns="http://www.w3.org/2000/svg" xmlns:xlink="http://www.w3.org/1999/xlink" x="0px" y="0px"
	 width="841.891px" height="595.281px" viewBox="0 0 841.891 595.281" enable-background="new 0 0 841.891 595.281"
	 xml:space="preserve">
<path id="XMLID_4_" fill="#FFFFFF" d="M596.495,373.217c-0.824-11.217-2.337-22.447-4.563-33.635
	C567.729,217.918,466.29,130.919,348.761,119.401l69.061-69.063c11.516-11.516,11.516-30.186,0-41.701
	c-11.514-11.516-30.185-11.516-41.7,0l-122.83,122.83c-0.004,0.004-0.008,0.01-0.012,0.014c-0.7,0.702-1.364,1.433-1.989,2.2
	c-0.283,0.344-0.523,0.707-0.784,1.062c-0.303,0.408-0.621,0.806-0.904,1.23c-0.37,0.552-0.694,1.124-1.021,1.694
	c-0.146,0.254-0.309,0.497-0.448,0.755c-0.297,0.557-0.551,1.128-0.81,1.698c-0.138,0.303-0.293,0.598-0.421,0.904
	c-0.206,0.499-0.374,1.007-0.553,1.512c-0.142,0.407-0.299,0.808-0.427,1.221c-0.123,0.411-0.214,0.826-0.32,1.24
	c-0.134,0.523-0.279,1.042-0.383,1.575c-0.063,0.324-0.099,0.65-0.151,0.975c-0.103,0.623-0.209,1.244-0.271,1.878
	c-0.027,0.276-0.027,0.556-0.045,0.833c-0.048,0.67-0.097,1.341-0.097,2.019c-0.002,0.442,0.041,0.881,0.059,1.321
	c0.024,0.509,0.024,1.015,0.073,1.525c0.093,0.979,0.237,1.952,0.429,2.917c0.002,0.009,0.002,0.019,0.004,0.026
	c0.021,0.107,0.057,0.21,0.08,0.318c0.177,0.843,0.38,1.681,0.631,2.508c0.091,0.295,0.205,0.578,0.303,0.869
	c0.213,0.621,0.421,1.242,0.673,1.852c0.165,0.399,0.361,0.776,0.54,1.164c0.223,0.479,0.438,0.963,0.688,1.433
	c0.254,0.473,0.537,0.919,0.812,1.373c0.221,0.363,0.429,0.734,0.667,1.091c0.367,0.55,0.769,1.069,1.168,1.59
	c0.188,0.244,0.357,0.498,0.552,0.735c0.551,0.671,1.135,1.308,1.74,1.925c0.076,0.076,0.14,0.163,0.216,0.239l0.039,0.04
	c0.032,0.029,0.06,0.059,0.089,0.088L376.124,296c5.758,5.758,13.305,8.638,20.849,8.638c7.545,0,15.094-2.88,20.852-8.638
	c11.516-11.514,11.516-30.185,0-41.701l-76.344-76.344c92.988,8.447,173.502,77.069,192.607,173.131
	c2.623,13.185,3.989,26.448,4.146,39.633c0.607,50.543-16.555,99.943-48.86,139.45c-4.213,5.152-8.685,10.138-13.407,14.935
	c-11.427,11.604-11.279,30.273,0.323,41.699c5.026,4.949,11.376,7.726,17.889,8.343c0.93,0.088,1.863,0.131,2.797,0.131
	c7.624,0,15.243-2.938,21.013-8.799C574.083,529.516,602.255,451.731,596.495,373.217z"/>
</svg>
